<svg xmlns="http://www.w3.org/2000/svg" viewBox="0 0 512 512" role="img" aria-labelledby="title desc">
  <title id="title">DadriWorks App Icon</title>
  <desc id="desc">Municipal building and work progress chart icon.</desc>
  <defs>
    <linearGradient id="bg" x1="72" y1="54" x2="436" y2="464" gradientUnits="userSpaceOnUse">
      <stop offset="0" stop-color="#162033"/>
      <stop offset="0.58" stop-color="#2563eb"/>
      <stop offset="1" stop-color="#0f766e"/>
    </linearGradient>
    <filter id="shadow" x="-20%" y="-20%" width="140%" height="140%">
      <feDropShadow dx="0" dy="18" stdDeviation="18" flood-color="#0f172a" flood-opacity="0.22"/>
    </filter>
  </defs>
  <rect width="512" height="512" rx="104" fill="url(#bg)"/>
  <circle cx="392" cy="106" r="54" fill="#93c5fd" opacity="0.22"/>
  <circle cx="120" cy="408" r="76" fill="#5eead4" opacity="0.18"/>
  <g filter="url(#shadow)">
    <rect x="102" y="154" width="308" height="232" rx="34" fill="#f8fafc"/>
    <path d="M256 92 110 164h292L256 92Z" fill="#e0f2fe"/>
    <path d="M256 92 110 164h292L256 92Z" stroke="#0ea5e9" stroke-width="16" stroke-linejoin="round"/>
    <rect x="128" y="356" width="256" height="34" rx="17" fill="#162033"/>
    <rect x="150" y="194" width="38" height="136" rx="14" fill="#2563eb"/>
    <rect x="224" y="194" width="38" height="136" rx="14" fill="#0f766e"/>
    <rect x="298" y="194" width="38" height="136" rx="14" fill="#2563eb"/>
    <path d="M170 292 218 250l44 32 76-78" fill="none" stroke="#16a34a" stroke-width="22" stroke-linecap="round" stroke-linejoin="round"/>
  </g>
</svg>
